# xmcd CD database file
#
# Track frame offsets:
#	150
#	17060
#	33622
#	55436
#	75467
#	92447
#	115139
#	136410
#	157974
#	187521
#
# Disc length: 2710 seconds
#
# Revision: 7
# Processed by: cddbd v1.4PL0 Copyright (c) Steve Scherf et al.
# Submitted via: CDex 1.40Release
#
DISCID=6f0a940a
DTITLE=Madonna - Music Special Edition CD1
DYEAR=2000
DGENRE=Pop
TTITLE0=Music
TTITLE1=Impressive Instant
TTITLE2=Runaway Lover
TTITLE3=I Deserve It
TTITLE4=Amazing
TTITLE5=Nobody's Perfect
TTITLE6=Don't Tell Me
TTITLE7=What It Feels Like For a Girl
TTITLE8=Paradise (Not For Me)
TTITLE9=Gone
EXTD=YEAR: 2000 ID3G: 13
EXTT0=
EXTT1=
EXTT2=
EXTT3=
EXTT4=
EXTT5=
EXTT6=
EXTT7=
EXTT8=
EXTT9=
PLAYORDER=
